ffmpeg version 5.1.6-0+deb12u1 Copyright (c) 2000-2024 the FFmpeg developers
  built with gcc 12 (Debian 12.2.0-14)
  configuration: --prefix=/usr --extra-version=0+deb12u1 --toolchain=hardened --libdir=/usr/lib/x86_64-linux-gnu --incdir=/usr/include/x86_64-linux-gnu --arch=amd64 --enable-gpl --disable-stripping --enable-gnutls --enable-ladspa --enable-libaom --enable-libass --enable-libbluray --enable-libbs2b --enable-libcaca --enable-libcdio --enable-libcodec2 --enable-libdav1d --enable-libflite --enable-libfontconfig --enable-libfreetype --enable-libfribidi --enable-libglslang --enable-libgme --enable-libgsm --enable-libjack --enable-libmp3lame --enable-libmysofa --enable-libopenjpeg --enable-libopenmpt --enable-libopus --enable-libpulse --enable-librabbitmq --enable-librist --enable-librubberband --enable-libshine --enable-libsnappy --enable-libsoxr --enable-libspeex --enable-libsrt --enable-libssh --enable-libsvtav1 --enable-libtheora --enable-libtwolame --enable-libvidstab --enable-libvorbis --enable-libvpx --enable-libwebp --enable-libx265 --enable-libxml2 --enable-libxvid --enable-libzimg --enable-libzmq --enable-libzvbi --enable-lv2 --enable-omx --enable-openal --enable-opencl --enable-opengl --enable-sdl2 --disable-sndio --enable-libjxl --enable-pocketsphinx --enable-librsvg --enable-libmfx --enable-libdc1394 --enable-libdrm --enable-libiec61883 --enable-chromaprint --enable-frei0r --enable-libx264 --enable-libplacebo --enable-librav1e --enable-shared
  libavutil      57. 28.100 / 57. 28.100
  libavcodec     59. 37.100 / 59. 37.100
  libavformat    59. 27.100 / 59. 27.100
  libavdevice    59.  7.100 / 59.  7.100
  libavfilter     8. 44.100 /  8. 44.100
  libswscale      6.  7.100 /  6.  7.100
  libswresample   4.  7.100 /  4.  7.100
  libpostproc    56.  6.100 / 56.  6.100
[rawvideo @ 0x555a6a0cb7c0] Stream #0: not enough frames to estimate rate; consider increasing probesize
Input #0, rawvideo, from 'pipe:':
  Duration: N/A, start: 0.000000, bitrate: 13436928 kb/s
  Stream #0:0: Video: rawvideo (RGB[24] / 0x18424752), rgb24, 2160x2160, 13436928 kb/s, 120 tbr, 120 tbn
Stream mapping:
  Stream #0:0 -> #0:0 (rawvideo (native) -> h264 (libx264))
[libx264 @ 0x555a6a0e04c0] using cpu capabilities: MMX2 SSE2Fast SSSE3 SSE4.2 AVX FMA3 BMI2 AVX2
[libx264 @ 0x555a6a0e04c0] profile High, level 6.0, 4:2:0, 8-bit
[libx264 @ 0x555a6a0e04c0] 264 - core 164 r3095 baee400 - H.264/MPEG-4 AVC codec - Copyleft 2003-2022 - http://www.videolan.org/x264.html - options: cabac=1 ref=3 deblock=1:0:0 analyse=0x3:0x113 me=hex subme=7 psy=1 psy_rd=1.00:0.00 mixed_ref=1 me_range=16 chroma_me=1 trellis=1 8x8dct=1 cqm=0 deadzone=21,11 fast_pskip=1 chroma_qp_offset=-2 threads=24 lookahead_threads=4 sliced_threads=0 nr=0 decimate=1 interlaced=0 bluray_compat=0 constrained_intra=0 bframes=3 b_pyramid=2 b_adapt=1 b_bias=0 direct=1 weightb=1 open_gop=0 weightp=2 keyint=250 keyint_min=25 scenecut=40 intra_refresh=0 rc_lookahead=40 rc=crf mbtree=1 crf=15.0 qcomp=0.60 qpmin=0 qpmax=69 qpstep=4 ip_ratio=1.40 aq=1:1.00
Output #0, mp4, to '/home/kaiser/sketchbook/all/proccessing_sketches/test/sketch_241214b/myVideo.mp4':
  Metadata:
    comment         : Made with Video Export for Processing - https://git.io/vAXLk
    encoder         : Lavf59.27.100
  Stream #0:0: Video: h264 (avc1 / 0x31637661), yuv420p(tv, progressive), 2160x2160, q=2-31, 120 fps, 15360 tbn
    Metadata:
      encoder         : Lavc59.37.100 libx264
    Side data:
      cpb: bitrate max/min/avg: 0/0/0 buffer size: 0 vbv_delay: N/A
frame=    1 fps=0.0 q=0.0 size=       0kB time=00:00:00.00 bitrate=N/A speed=N/A    frame=   14 fps=0.0 q=0.0 size=       0kB time=00:00:00.00 bitrate=N/A speed=   0x    frame=   30 fps= 29 q=0.0 size=       0kB time=00:00:00.00 bitrate=N/A speed=   0x    frame=   46 fps= 30 q=0.0 size=       0kB time=00:00:00.00 bitrate=N/A speed=   0x    frame=   57 fps= 28 q=0.0 size=       0kB time=00:00:00.00 bitrate=N/A speed=   0x    frame=   71 fps= 27 q=25.0 size=       0kB time=00:00:00.00 bitrate=5907.7kbits/s speed=2.51e-05x    frame=   86 fps= 28 q=25.0 size=     256kB time=00:00:00.12 bitrate=16771.6kbits/s speed=0.0401x    frame=  101 fps= 28 q=25.0 size=     768kB time=00:00:00.25 bitrate=25160.8kbits/s speed=0.0685x    frame=  116 fps= 28 q=25.0 size=    1024kB time=00:00:00.37 bitrate=22366.8kbits/s speed=0.0899x    frame=  130 fps= 28 q=25.0 size=    1280kB time=00:00:00.49 bitrate=21324.9kbits/s speed=0.105x    frame=  145 fps= 28 q=25.0 size=    1792kB time=00:00:00.61 bitrate=23803.6kbits/s speed=0.119x    frame=  160 fps= 28 q=25.0 size=    2048kB time=00:00:00.74 bitrate=22619.5kbits/s speed=0.13x    frame=  175 fps= 28 q=25.0 size=    2304kB time=00:00:00.86 bitrate=21776.9kbits/s speed=0.14x    frame=  190 fps= 28 q=25.0 size=    2816kB time=00:00:00.99 bitrate=23261.4kbits/s speed=0.148x    frame=  206 fps= 28 q=25.0 size=    3072kB time=00:00:01.12 bitrate=22368.7kbits/s speed=0.155x    frame=  221 fps= 28 q=25.0 size=    3584kB time=00:00:01.25 bitrate=23487.2kbits/s speed=0.161x    frame=  236 fps= 29 q=25.0 size=    3840kB time=00:00:01.37 bitrate=22877.2kbits/s speed=0.166x    frame=  251 fps= 29 q=25.0 size=    4096kB time=00:00:01.50 bitrate=22368.9kbits/s speed=0.171x    frame=  266 fps= 29 q=25.0 size=    4608kB time=00:00:01.62 bitrate=23229.3kbits/s speed=0.175x    frame=  281 fps= 29 q=25.0 size=    4864kB time=00:00:01.75 bitrate=22768.5kbits/s speed=0.178x    frame=  296 fps= 29 q=22.0 size=    5120kB time=00:00:01.87 bitrate=22369.1kbits/s speed=0.181x    frame=  311 fps= 29 q=25.0 size=    5632kB time=00:00:02.00 bitrate=23068.1kbits/s speed=0.184x    frame=  326 fps= 29 q=25.0 size=    5888kB time=00:00:02.12 bitrate=22698.1kbits/s speed=0.186x    frame=  341 fps= 29 q=25.0 size=    6144kB time=00:00:02.25 bitrate=22369.1kbits/s speed=0.189x    frame=  357 fps= 29 q=25.0 size=    6656kB time=00:00:02.38 bitrate=22877.6kbits/s speed=0.192x    frame=  372 fps= 29 q=25.0 size=    6912kB time=00:00:02.50 bitrate=22573.6kbits/s speed=0.194x    frame=  388 fps= 29 q=25.0 size=    7424kB time=00:00:02.64 bitrate=23021.9kbits/s speed=0.196x    frame=  403 fps= 29 q=25.0 size=    7680kB time=00:00:02.76 bitrate=22739.8kbits/s speed=0.198x    frame=  419 fps= 29 q=25.0 size=    7936kB time=00:00:02.90 bitrate=22417.5kbits/s speed= 0.2x    frame=  435 fps= 29 q=25.0 size=    8448kB time=00:00:03.03 bitrate=22814.8kbits/s speed=0.202x    frame=  450 fps= 29 q=25.0 size=    8704kB time=00:00:03.15 bitrate=22575.9kbits/s speed=0.203x    frame=  465 fps= 29 q=25.0 size=    8960kB time=00:00:03.28 bitrate=22355.1kbits/s speed=0.205x    frame=  480 fps= 29 q=25.0 size=    9472kB time=00:00:03.40 bitrate=22765.8kbits/s speed=0.206x    frame=  495 fps= 29 q=25.0 size=    9728kB time=00:00:03.53 bitrate=22554.0kbits/s speed=0.207x    frame=  510 fps= 29 q=25.0 size=    9984kB time=00:00:03.65 bitrate=22356.6kbits/s speed=0.208x    frame=  525 fps= 29 q=25.0 size=   10240kB time=00:00:03.78 bitrate=22172.3kbits/s speed=0.209x    frame=  541 fps= 29 q=25.0 size=   10496kB time=00:00:03.91 bitrate=21952.9kbits/s speed=0.21x    frame=  556 fps= 29 q=25.0 size=   11008kB time=00:00:04.04 bitrate=22311.7kbits/s speed=0.211x    frame=  571 fps= 29 q=25.0 size=   11264kB time=00:00:04.16 bitrate=22145.7kbits/s speed=0.212x    frame=  586 fps= 29 q=25.0 size=   11520kB time=00:00:04.29 bitrate=21989.3kbits/s speed=0.213x    frame=  599 fps= 29 q=-1.0 Lsize=   13237kB time=00:00:04.96 bitrate=21833.6kbits/s speed=0.238x    
video:13229kB audio:0kB subtitle:0kB other streams:0kB global headers:0kB muxing overhead: 0.061151%
[libx264 @ 0x555a6a0e04c0] frame I:3     Avg QP: 6.49  size: 83370
[libx264 @ 0x555a6a0e04c0] frame P:151   Avg QP:18.92  size: 38904
[libx264 @ 0x555a6a0e04c0] frame B:445   Avg QP:25.65  size: 16678
[libx264 @ 0x555a6a0e04c0] consecutive B-frames:  0.8%  0.3%  0.0% 98.8%
[libx264 @ 0x555a6a0e04c0] mb I  I16..4: 77.1% 14.9%  8.0%
[libx264 @ 0x555a6a0e04c0] mb P  I16..4:  0.8%  0.7%  0.4%  P16..4:  3.1%  3.3%  2.1%  0.0%  0.0%    skip:89.5%
[libx264 @ 0x555a6a0e04c0] mb B  I16..4:  0.1%  0.2%  0.0%  B16..8:  5.6%  2.5%  0.8%  direct: 0.5%  skip:90.2%  L0:43.6% L1:38.2% BI:18.2%
[libx264 @ 0x555a6a0e04c0] 8x8 transform intra:32.9% inter:17.6%
[libx264 @ 0x555a6a0e04c0] coded y,uvDC,uvAC intra: 11.5% 15.2% 13.4% inter: 2.4% 2.5% 2.3%
[libx264 @ 0x555a6a0e04c0] i16 v,h,dc,p: 87%  9%  4%  0%
[libx264 @ 0x555a6a0e04c0] i8 v,h,dc,ddl,ddr,vr,hd,vl,hu: 14%  3% 81%  0%  0%  0%  0%  0%  0%
[libx264 @ 0x555a6a0e04c0] i4 v,h,dc,ddl,ddr,vr,hd,vl,hu: 30% 14% 33%  3%  3%  4%  4%  4%  3%
[libx264 @ 0x555a6a0e04c0] i8c dc,h,v,p: 80%  8% 11%  1%
[libx264 @ 0x555a6a0e04c0] Weighted P-Frames: Y:0.0% UV:0.0%
[libx264 @ 0x555a6a0e04c0] ref P L0: 58.8%  5.4% 20.3% 15.5%
[libx264 @ 0x555a6a0e04c0] ref B L0: 75.5% 19.1%  5.3%
[libx264 @ 0x555a6a0e04c0] ref B L1: 88.5% 11.5%
[libx264 @ 0x555a6a0e04c0] kb/s:21710.12
Exiting normally, received signal 15.
